<svg width="1366" height="125" viewBox="0 0 1366 125" fill="none" xmlns="http://www.w3.org/2000/svg">
<path d="M40.1103 9.55878L40.1006 9.55958L40.0909 9.5602C32.8244 10.024 28.6608 15.7922 26.2348 23.2983C23.8201 30.7694 23.2747 39.5637 23.0222 45.2875L23.0218 45.2951C22.7662 50.2365 21.8693 54.9658 19.6606 58.6147C18.7877 60.0568 17.716 61.3196 16.4169 62.356C17.598 63.3562 18.5555 64.5621 19.3371 65.9313C21.3584 69.4722 22.1743 74.0606 22.8445 78.7522C23.0947 80.454 23.3037 82.4747 23.5284 84.6469C23.6824 86.1367 23.8439 87.6978 24.031 89.2761C24.497 93.2056 25.1311 97.3436 26.2234 101.146C27.3176 104.955 28.8521 108.356 31.0742 110.862C33.2716 113.341 36.1666 114.977 40.0971 115.253L40.0971 115.252L40.1103 115.254C42.7643 115.475 44.056 117.665 44.056 119.636C44.056 120.627 43.74 121.651 43.0447 122.429C42.3288 123.231 41.2764 123.697 39.9856 123.643L39.9708 123.643L39.956 123.642C30.0042 122.931 23.8787 115.805 19.9472 107.604C17.3573 102.421 15.9905 96.5812 15.3095 90.9629L15.3084 90.9535L15.3074 90.944C15.1722 89.6188 15.0913 88.0835 15.0065 86.4749C14.9581 85.5579 14.9086 84.6172 14.8469 83.678C14.6744 81.048 14.4051 78.3503 13.8154 75.8899C13.2245 73.4245 12.3289 71.2724 10.9547 69.6795C9.6047 68.1146 7.74848 67.0357 5.09743 66.7665C3.06627 66.5634 0.999954 65.0876 0.999954 62.5744V62.5735V62.5725V62.5715V62.5705V62.5695V62.5685V62.5675V62.5666V62.5656V62.5646V62.5636V62.5626V62.5616V62.5606V62.5597V62.5587V62.5577V62.5567V62.5557V62.5547V62.5537V62.5528V62.5518V62.5508V62.5498V62.5488V62.5478V62.5468V62.5459V62.5449V62.5439V62.5429V62.5419V62.5409V62.5399V62.539V62.538V62.537V62.536V62.535V62.534V62.533V62.5321V62.5311V62.5301V62.5291V62.5281V62.5271V62.5261V62.5252V62.5242V62.5232V62.5222V62.5212V62.5202V62.5192V62.5182V62.5173V62.5163V62.5153V62.5143V62.5133V62.5123V62.5113V62.5104V62.5094V62.5084V62.5074V62.5064V62.5054V62.5044V62.5035V62.5025V62.5015V62.5005V62.4995V62.4985V62.4975V62.4966V62.4956V62.4946V62.4936V62.4926V62.4916V62.4906V62.4897V62.4887V62.4877V62.4867V62.4857V62.4847V62.4837V62.4828V62.4818V62.4808V62.4798V62.4788V62.4778V62.4768V62.4759V62.4749V62.4739V62.4729V62.4719V62.4709V62.4699V62.469V62.468V62.467V62.466V62.465V62.464V62.463V62.4621V62.4611V62.4601V62.4591V62.4581V62.4571V62.4561V62.4552V62.4542V62.4532V62.4522V62.4512V62.4502V62.4492V62.4482V62.4473V62.4463V62.4453V62.4443V62.4433V62.4423V62.4413V62.4404V62.4394V62.4384V62.4374V62.4364V62.4354V62.4344V62.4335V62.4325V62.4315V62.4305V62.4295V62.4285V62.4275V62.4266V62.4256V62.4246V62.4236V62.4226V62.4216V62.4206V62.4197V62.4187V62.4177V62.4167V62.4157V62.4147V62.4137V62.4128V62.4118V62.4108V62.4098V62.4088V62.4078V62.4068V62.4059V62.4049V62.4039V62.4029V62.4019V62.4009V62.3999V62.399V62.398V62.397V62.396V62.395V62.394V62.393V62.3921V62.3911V62.3901V62.3891V62.3881V62.3871V62.3861V62.3852V62.3842V62.3832V62.3822V62.3812V62.3802V62.3792V62.3783V62.3773V62.3763V62.3753V62.3743V62.3733V62.3723V62.3713V62.3704V62.3694V62.3684V62.3674V62.3664V62.3654V62.3644V62.3635V62.3625V62.3615V62.3605V62.3595V62.3585V62.3575V62.3566V62.3556V62.3546V62.3536V62.3526V62.3516V62.3506V62.3497V62.3487V62.3477V62.3467V62.3457V62.3447V62.3437V62.3428V62.3418V62.3408V62.3398V62.3388V62.3378V62.3368V62.3359V62.3349V62.3339V62.3329V62.3319V62.3309V62.3299V62.329V62.328V62.327V62.326V62.325V62.324V62.323V62.3221V62.3211V62.3201V62.3191V62.3181V62.3171V62.3161V62.3152V62.3142V62.3132V62.3122V62.3112V62.3102V62.3092V62.3083V62.3073V62.3063V62.3053V62.3043V62.3033V62.3023V62.3013V62.3004V62.2994V62.2984V62.2974V62.2964V62.2954V62.2944V62.2935V62.2925V62.2915V62.2905V62.2895V62.2885V62.2875V62.2866V62.2856V62.2846V62.2836V62.2826V62.2816V62.2806V62.2797V62.2787V62.2777V62.2767V62.2757V62.2747V62.2737V62.2728V62.2718V62.2708V62.2698V62.2688V62.2678V62.2668V62.2659V62.2649V62.2639V62.2629V62.2619V62.2609V62.2599V62.259V62.258V62.257V62.256V62.255V62.254V62.253V62.2521V62.2511V62.2501V62.2491V62.2481V62.2471V62.2461V62.2452V62.2442V62.2432V62.2422V62.2412V62.2402V62.2392V62.2383V62.2373V62.2363V62.2353V62.2343V62.2333V62.2323V62.2313V62.2304V62.2294V62.2284V62.2274V62.2264V62.2254V62.2244V62.2235V62.2225V62.2215V62.2205V62.2195V62.2185V62.2175V62.2166V62.2156V62.2146V62.2136V62.2126V62.2116V62.2106V62.2097V62.2087V62.2077V62.2067V62.2057V62.2047V62.2037V62.2028V62.2018V62.2008V62.1998V62.1988V62.1978V62.1968V62.1959V62.1949V62.1939V62.1929V62.1919V62.1909V62.1899V62.189V62.188V62.187V62.186V62.185V62.184V62.183V62.1821V62.1811V62.1801V62.1791V62.1781V62.1771V62.1761V62.1752V62.1742V62.1732V62.1722V62.1712V62.1702V62.1692V62.1683V62.1673V62.1663V62.1653V62.1643V62.1633V62.1623V62.1614V62.1604V62.1594V62.1584V62.1574V62.1564V62.1554V62.1544V62.1535V62.1525V62.1515V62.1505V62.1495V62.1485V62.1475V62.1466V62.1456V62.1446V62.1436V62.1426V62.1416V62.1406V62.1397V62.1387V62.1377V62.1367V62.1357V62.1347V62.1337V62.1328V62.1318V62.1308V62.1298V62.1288V62.1278V62.1268V62.1259V62.1249V62.1239V62.1229V62.1219V62.1209V62.1199V62.119V62.118V62.117V62.116V62.115V62.114V62.113V62.1121V62.1111V62.1101V62.1091V62.1081V62.1071V62.1061V62.1052V62.1042V62.1032V62.1022V62.1012V62.1002V62.0992V62.0983V62.0973V62.0963V62.0953V62.0943V62.0933V62.0923V62.0914V62.0904V62.0894V62.0884V62.0874V62.0864V62.0854V62.0844V62.0835V62.0825V62.0815V62.0805V62.0795V62.0785V62.0775V62.0766V62.0756V62.0746V62.0736V62.0726V62.0716V62.0706V62.0697C0.999954 59.5565 3.06627 58.0808 5.09743 57.8776L5.09742 57.8776L5.108 57.8766C9.30838 57.5016 11.7077 54.8082 13.1188 51.1512C14.5455 47.4537 14.8822 42.9336 14.966 39.331L14.9661 39.3286C15.1371 32.6592 16.5037 25.4684 19.0809 19.2829C22.8288 10.2546 29.1093 1.89156 39.9455 1.00334L39.9863 1H40.0272C41.3468 1 42.4078 1.49874 43.124 2.32143C43.8229 3.12426 44.1322 4.16351 44.119 5.16808C44.0927 7.16408 42.7519 9.33864 40.1103 9.55878Z" fill="#5B49C5" stroke="#5B49C5" stroke-width="2"/>
<path d="M124.114 9.55878L124.123 9.55958L124.133 9.5602C131.399 10.024 135.563 15.7922 137.989 23.2983C140.404 30.7694 140.949 39.5637 141.202 45.2875L141.202 45.2951C141.457 50.2216 142.265 54.9496 144.383 58.5989C145.211 60.0252 146.234 61.2765 147.482 62.3074C146.338 63.3244 145.433 64.5367 144.705 65.8851C142.777 69.4554 142.047 74.0777 141.379 78.7522C141.129 80.454 140.92 82.4747 140.696 84.6469C140.541 86.1367 140.38 87.6978 140.193 89.2761C139.727 93.2056 139.093 97.3436 138.001 101.146C136.906 104.955 135.372 108.356 133.15 110.862C130.952 113.341 128.057 114.977 124.127 115.253L124.127 115.252L124.114 115.254C121.46 115.475 120.168 117.665 120.168 119.636C120.168 120.627 120.484 121.651 121.179 122.429C121.895 123.231 122.947 123.697 124.238 123.643L124.253 123.643L124.268 123.642C134.22 122.931 140.345 115.805 144.277 107.604C146.867 102.421 148.233 96.5812 148.914 90.9629L148.915 90.9535L148.916 90.944C149.052 89.6188 149.133 88.0835 149.217 86.4749C149.266 85.5579 149.315 84.6172 149.377 83.678C149.549 81.048 149.819 78.3503 150.408 75.8899C150.999 73.4245 151.895 71.2724 153.269 69.6795C154.619 68.1146 156.475 67.0357 159.126 66.7665C161.158 66.5634 163.224 65.0876 163.224 62.5744V62.5735V62.5725V62.5715V62.5705V62.5695V62.5685V62.5675V62.5666V62.5656V62.5646V62.5636V62.5626V62.5616V62.5606V62.5597V62.5587V62.5577V62.5567V62.5557V62.5547V62.5537V62.5528V62.5518V62.5508V62.5498V62.5488V62.5478V62.5468V62.5459V62.5449V62.5439V62.5429V62.5419V62.5409V62.5399V62.539V62.538V62.537V62.536V62.535V62.534V62.533V62.5321V62.5311V62.5301V62.5291V62.5281V62.5271V62.5261V62.5252V62.5242V62.5232V62.5222V62.5212V62.5202V62.5192V62.5182V62.5173V62.5163V62.5153V62.5143V62.5133V62.5123V62.5113V62.5104V62.5094V62.5084V62.5074V62.5064V62.5054V62.5044V62.5035V62.5025V62.5015V62.5005V62.4995V62.4985V62.4975V62.4966V62.4956V62.4946V62.4936V62.4926V62.4916V62.4906V62.4897V62.4887V62.4877V62.4867V62.4857V62.4847V62.4837V62.4828V62.4818V62.4808V62.4798V62.4788V62.4778V62.4768V62.4759V62.4749V62.4739V62.4729V62.4719V62.4709V62.4699V62.469V62.468V62.467V62.466V62.465V62.464V62.463V62.4621V62.4611V62.4601V62.4591V62.4581V62.4571V62.4561V62.4552V62.4542V62.4532V62.4522V62.4512V62.4502V62.4492V62.4482V62.4473V62.4463V62.4453V62.4443V62.4433V62.4423V62.4413V62.4404V62.4394V62.4384V62.4374V62.4364V62.4354V62.4344V62.4335V62.4325V62.4315V62.4305V62.4295V62.4285V62.4275V62.4266V62.4256V62.4246V62.4236V62.4226V62.4216V62.4206V62.4197V62.4187V62.4177V62.4167V62.4157V62.4147V62.4137V62.4128V62.4118V62.4108V62.4098V62.4088V62.4078V62.4068V62.4059V62.4049V62.4039V62.4029V62.4019V62.4009V62.3999V62.399V62.398V62.397V62.396V62.395V62.394V62.393V62.3921V62.3911V62.3901V62.3891V62.3881V62.3871V62.3861V62.3852V62.3842V62.3832V62.3822V62.3812V62.3802V62.3792V62.3783V62.3773V62.3763V62.3753V62.3743V62.3733V62.3723V62.3713V62.3704V62.3694V62.3684V62.3674V62.3664V62.3654V62.3644V62.3635V62.3625V62.3615V62.3605V62.3595V62.3585V62.3575V62.3566V62.3556V62.3546V62.3536V62.3526V62.3516V62.3506V62.3497V62.3487V62.3477V62.3467V62.3457V62.3447V62.3437V62.3428V62.3418V62.3408V62.3398V62.3388V62.3378V62.3368V62.3359V62.3349V62.3339V62.3329V62.3319V62.3309V62.3299V62.329V62.328V62.327V62.326V62.325V62.324V62.323V62.3221V62.3211V62.3201V62.3191V62.3181V62.3171V62.3161V62.3152V62.3142V62.3132V62.3122V62.3112V62.3102V62.3092V62.3083V62.3073V62.3063V62.3053V62.3043V62.3033V62.3023V62.3013V62.3004V62.2994V62.2984V62.2974V62.2964V62.2954V62.2944V62.2935V62.2925V62.2915V62.2905V62.2895V62.2885V62.2875V62.2866V62.2856V62.2846V62.2836V62.2826V62.2816V62.2806V62.2797V62.2787V62.2777V62.2767V62.2757V62.2747V62.2737V62.2728V62.2718V62.2708V62.2698V62.2688V62.2678V62.2668V62.2659V62.2649V62.2639V62.2629V62.2619V62.2609V62.2599V62.259V62.258V62.257V62.256V62.255V62.254V62.253V62.2521V62.2511V62.2501V62.2491V62.2481V62.2471V62.2461V62.2452V62.2442V62.2432V62.2422V62.2412V62.2402V62.2392V62.2383V62.2373V62.2363V62.2353V62.2343V62.2333V62.2323V62.2313V62.2304V62.2294V62.2284V62.2274V62.2264V62.2254V62.2244V62.2235V62.2225V62.2215V62.2205V62.2195V62.2185V62.2175V62.2166V62.2156V62.2146V62.2136V62.2126V62.2116V62.2106V62.2097V62.2087V62.2077V62.2067V62.2057V62.2047V62.2037V62.2028V62.2018V62.2008V62.1998V62.1988V62.1978V62.1968V62.1959V62.1949V62.1939V62.1929V62.1919V62.1909V62.1899V62.189V62.188V62.187V62.186V62.185V62.184V62.183V62.1821V62.1811V62.1801V62.1791V62.1781V62.1771V62.1761V62.1752V62.1742V62.1732V62.1722V62.1712V62.1702V62.1692V62.1683V62.1673V62.1663V62.1653V62.1643V62.1633V62.1623V62.1614V62.1604V62.1594V62.1584V62.1574V62.1564V62.1554V62.1544V62.1535V62.1525V62.1515V62.1505V62.1495V62.1485V62.1475V62.1466V62.1456V62.1446V62.1436V62.1426V62.1416V62.1406V62.1397V62.1387V62.1377V62.1367V62.1357V62.1347V62.1337V62.1328V62.1318V62.1308V62.1298V62.1288V62.1278V62.1268V62.1259V62.1249V62.1239V62.1229V62.1219V62.1209V62.1199V62.119V62.118V62.117V62.116V62.115V62.114V62.113V62.1121V62.1111V62.1101V62.1091V62.1081V62.1071V62.1061V62.1052V62.1042V62.1032V62.1022V62.1012V62.1002V62.0992V62.0983V62.0973V62.0963V62.0953V62.0943V62.0933V62.0923V62.0914V62.0904V62.0894V62.0884V62.0874V62.0864V62.0854V62.0844V62.0835V62.0825V62.0815V62.0805V62.0795V62.0785V62.0775V62.0766V62.0756V62.0746V62.0736V62.0726V62.0716V62.0706V62.0697C163.224 59.5565 161.158 58.0808 159.126 57.8776L159.126 57.8776L159.116 57.8766C154.915 57.5016 152.516 54.8082 151.105 51.1512C149.678 47.4537 149.342 42.9336 149.258 39.331L149.258 39.3286C149.087 32.6592 147.72 25.4684 145.143 19.2829C141.395 10.2546 135.115 1.89156 124.278 1.00334L124.238 1H124.197C122.877 1 121.816 1.49874 121.1 2.32143C120.401 3.12426 120.092 4.16351 120.105 5.16808C120.131 7.16408 121.472 9.33864 124.114 9.55878Z" fill="#5B49C5" stroke="#5B49C5" stroke-width="2"/>
<path d="M46.7778 85.1095L46.7779 85.1097C56.426 94.7891 69.0825 99.629 81.7536 99.629C94.4245 99.629 107.089 94.7892 116.737 85.1097L116.737 85.1095C118.501 83.339 118.501 80.4626 116.737 78.6921C114.974 76.9219 112.098 76.911 110.332 78.6923C94.5725 94.5082 68.9342 94.5081 53.1747 78.692C51.4103 76.9205 48.5421 76.9205 46.7778 78.6921C45.0145 80.4626 45.0145 83.339 46.7778 85.1095ZM45.4553 54.5768V54.6819C45.4553 57.187 47.4861 59.2178 49.9912 59.2178H53.6729C58.1432 59.2178 61.7935 55.6443 61.8886 51.175L62.3222 30.7968C62.3746 28.337 60.3949 26.3148 57.9345 26.3148C55.535 26.3148 53.5804 28.2418 53.5462 30.641L53.3166 46.764C53.2899 48.6395 51.7619 50.1459 49.8861 50.1459C47.4391 50.1459 45.4553 52.1297 45.4553 54.5768ZM118.06 30.9555V30.8504C118.06 28.3453 116.029 26.3145 113.524 26.3145H109.842C105.372 26.3145 101.722 29.8879 101.627 34.3572L101.193 54.7354C101.141 57.1952 103.121 59.2175 105.581 59.2175C107.98 59.2175 109.935 57.2904 109.969 54.8912L110.199 38.7683C110.225 36.8927 111.754 35.3863 113.629 35.3863C116.076 35.3863 118.06 33.4025 118.06 30.9555Z" fill="#5B49C5" stroke="#5B49C5"/>
<path d="M185.242 122.664L181.786 117.576C184.474 115.848 186.842 113.928 188.89 111.816C190.938 109.704 192.538 107.112 193.69 104.04C194.906 100.904 195.514 96.9359 195.514 92.1359V42.2159H207.226V94.9199C207.226 99.7839 206.202 103.944 204.154 107.4C202.106 110.856 199.418 113.8 196.09 116.232C192.826 118.664 189.21 120.808 185.242 122.664ZM199.834 48.6479L186.586 46.9199L186.682 42.2159H200.122L199.834 48.6479ZM205.978 49.2239L205.882 42.2159H214.906L215.482 45.2879C214.074 45.9919 212.538 46.6639 210.874 47.3039C209.274 47.9439 207.642 48.5839 205.978 49.2239Z" fill="#5B49C5"/>
<path d="M250.252 106.92C246.412 106.92 242.668 106.248 239.02 104.904C235.372 103.496 232.076 101.448 229.132 98.7599C226.252 96.0079 223.948 92.5839 222.22 88.4879C220.556 84.3279 219.724 79.4959 219.724 73.9919C219.724 67.2079 221.036 61.2879 223.66 56.2319C226.284 51.1759 229.836 47.2719 234.316 44.5199C238.86 41.7039 243.948 40.2959 249.58 40.2959C253.612 40.2959 257.452 41.0319 261.1 42.5039C264.812 43.9759 268.076 46.1839 270.892 49.1279C273.772 52.0079 276.044 55.5919 277.708 59.8799C279.372 64.1039 280.204 68.9359 280.204 74.3759C280.204 79.8799 279.372 84.6799 277.708 88.7759C276.044 92.8719 273.772 96.2639 270.892 98.9519C268.076 101.576 264.876 103.56 261.292 104.904C257.772 106.248 254.092 106.92 250.252 106.92ZM251.98 99.2399C253.068 99.2399 254.124 99.1759 255.148 99.0479C256.236 98.8559 257.324 98.6319 258.412 98.3759C261.164 96.4559 263.372 93.3839 265.036 89.1599C266.7 84.9359 267.532 80.1679 267.532 74.8559C267.532 71.3999 267.148 68.0719 266.38 64.8719C265.612 61.6719 264.428 58.7919 262.828 56.2319C261.292 53.6719 259.308 51.6239 256.876 50.0879C254.508 48.5519 251.66 47.7839 248.332 47.7839C247.116 47.7839 245.804 47.9119 244.396 48.1679C243.052 48.4239 241.676 48.8079 240.268 49.3199C238.732 50.5999 237.356 52.3919 236.14 54.6959C234.924 56.9999 233.964 59.6879 233.26 62.7599C232.62 65.8319 232.3 69.0639 232.3 72.4559C232.3 75.9759 232.684 79.3679 233.452 82.6319C234.284 85.8319 235.5 88.6799 237.1 91.1759C238.7 93.6719 240.716 95.6559 243.148 97.1279C245.644 98.5359 248.588 99.2399 251.98 99.2399Z" fill="#5B49C5"/>
<path d="M304.364 83.1119L282.38 42.2159H294.764L307.532 66.2159L310.124 74.1839L311.852 74.0879L313.292 76.9679L304.364 83.1119ZM296.204 105L295.628 101.928C297.1 101.096 298.636 100.36 300.236 99.7199C301.836 99.0799 303.468 98.5039 305.132 97.9919L305.228 105H296.204ZM309.26 105L309.548 98.5679L322.796 100.296L322.7 105H309.26ZM303.308 105V77.0639H314.828V105H303.308ZM292.556 48.6479L279.308 46.9199L279.404 42.2159H292.844L292.556 48.6479ZM294.188 49.2239L292.556 42.2159H303.116L303.692 45.2879C302.348 45.9919 300.844 46.6639 299.18 47.3039C297.516 47.9439 295.852 48.5839 294.188 49.2239ZM314.06 81.7679L308.396 78.5999L326.54 42.2159H335.468L314.06 81.7679ZM329.612 48.6479L316.364 46.9199L316.46 42.2159H329.9L329.612 48.6479ZM329.804 49.2239L328.172 42.2159H338.732L339.308 45.2879C337.964 45.9919 336.46 46.6639 334.796 47.3039C333.132 47.9439 331.468 48.5839 329.804 49.2239Z" fill="#5B49C5"/>
<path d="M339.574 105L338.998 101.928C340.47 101.096 342.006 100.36 343.606 99.7199C345.206 99.0799 346.838 98.5039 348.502 97.9919L348.598 105H339.574ZM356.566 105L356.854 98.5679L370.102 100.296L370.006 105H356.566ZM350.038 47.9759L340.054 47.0159L340.15 42.2159H349.942L350.038 47.9759ZM379.222 59.3999L377.11 45.6719L387.094 42.2159C387.222 43.3679 387.254 44.9359 387.19 46.9199C387.126 48.8399 386.998 50.8879 386.806 53.0639C386.614 55.2399 386.294 57.3519 385.846 59.3999H379.222ZM346.966 105V42.2159H358.678V105H346.966ZM384.982 50.5679L356.374 48.5519L349.174 42.2159H387.094L384.982 50.5679ZM380.47 79.9439L357.43 78.9839V72.4559L380.47 70.7279V79.9439Z" fill="#5B49C5"/>
<path d="M422.189 106.92C418.349 106.92 414.605 106.248 410.957 104.904C407.309 103.496 404.013 101.448 401.069 98.7599C398.189 96.0079 395.885 92.5839 394.157 88.4879C392.493 84.3279 391.661 79.4959 391.661 73.9919C391.661 67.2079 392.973 61.2879 395.597 56.2319C398.221 51.1759 401.773 47.2719 406.253 44.5199C410.797 41.7039 415.885 40.2959 421.517 40.2959C425.549 40.2959 429.389 41.0319 433.037 42.5039C436.749 43.9759 440.013 46.1839 442.829 49.1279C445.709 52.0079 447.981 55.5919 449.645 59.8799C451.309 64.1039 452.141 68.9359 452.141 74.3759C452.141 79.8799 451.309 84.6799 449.645 88.7759C447.981 92.8719 445.709 96.2639 442.829 98.9519C440.013 101.576 436.813 103.56 433.229 104.904C429.709 106.248 426.029 106.92 422.189 106.92ZM423.917 99.2399C425.005 99.2399 426.061 99.1759 427.085 99.0479C428.173 98.8559 429.261 98.6319 430.349 98.3759C433.101 96.4559 435.309 93.3839 436.973 89.1599C438.637 84.9359 439.469 80.1679 439.469 74.8559C439.469 71.3999 439.085 68.0719 438.317 64.8719C437.549 61.6719 436.365 58.7919 434.765 56.2319C433.229 53.6719 431.245 51.6239 428.813 50.0879C426.445 48.5519 423.597 47.7839 420.269 47.7839C419.053 47.7839 417.741 47.9119 416.333 48.1679C414.989 48.4239 413.613 48.8079 412.205 49.3199C410.669 50.5999 409.293 52.3919 408.077 54.6959C406.861 56.9999 405.901 59.6879 405.197 62.7599C404.557 65.8319 404.237 69.0639 404.237 72.4559C404.237 75.9759 404.621 79.3679 405.389 82.6319C406.221 85.8319 407.437 88.6799 409.037 91.1759C410.637 93.6719 412.653 95.6559 415.085 97.1279C417.581 98.5359 420.525 99.2399 423.917 99.2399Z" fill="#5B49C5"/>
<path d="M473.363 80.4239L473.267 72.3599C475.187 72.8719 477.043 73.2559 478.835 73.5119C480.691 73.7679 482.291 73.8959 483.635 73.8959C486.451 73.8959 488.787 73.5119 490.643 72.7439C492.563 71.9759 494.035 70.9519 495.059 69.6719C496.147 68.3279 496.915 66.8879 497.363 65.3519C497.811 63.7519 498.035 62.1519 498.035 60.5519C498.035 57.9279 497.491 55.4959 496.403 53.2559C495.379 51.0159 493.715 49.2559 491.411 47.9759L475.283 49.5119L457.811 42.2159L486.515 41.4479C491.763 41.4479 496.147 42.3439 499.667 44.1359C503.251 45.9279 505.939 48.2959 507.731 51.2399C509.523 54.1199 510.419 57.1919 510.419 60.4559C510.419 63.6559 509.523 66.7919 507.731 69.8639C506.003 72.8719 503.443 75.3679 500.051 77.3519C496.723 79.2719 492.627 80.2639 487.763 80.3279L473.363 80.4239ZM457.043 105L456.467 101.928C457.939 101.096 459.475 100.36 461.075 99.7199C462.675 99.0799 464.307 98.5039 465.971 97.9919L466.067 105H457.043ZM472.307 105L472.595 98.5679L485.843 100.296L485.747 105H472.307ZM464.627 105V42.2159H476.339V105H464.627ZM502.931 105L503.219 98.7599L516.467 100.296L516.371 105H502.931ZM467.699 47.9759L457.715 47.0159L457.811 42.2159H467.603L467.699 47.9759ZM499.475 105L484.019 76.5839L495.443 75.7199L513.491 105H499.475Z" fill="#5B49C5"/>
<path d="M552.324 106.92C547.396 107.176 543.012 106.76 539.172 105.672C535.396 104.584 532.132 102.984 529.38 100.872C526.692 98.7599 524.452 96.2959 522.66 93.4799C520.868 90.6639 519.524 87.6879 518.628 84.5519C517.796 81.3519 517.38 78.1199 517.38 74.8559C517.38 70.5039 518.084 66.2799 519.492 62.1839C520.9 58.0239 523.012 54.3119 525.828 51.0479C528.708 47.7839 532.26 45.1919 536.484 43.2719C540.772 41.2879 545.764 40.2959 551.46 40.2959C556.324 40.2959 560.452 40.9999 563.844 42.4079C567.236 43.7519 569.7 44.9999 571.236 46.1519L568.452 56.4239C568.132 56.1679 567.236 55.5279 565.764 54.5039C564.292 53.4799 562.372 52.3919 560.004 51.2399C557.636 50.0879 554.82 49.1919 551.556 48.5519C548.356 47.8479 544.772 47.6879 540.804 48.0719C538.244 49.6719 536.132 51.8159 534.468 54.5039C532.804 57.1919 531.588 60.1999 530.82 63.5279C530.052 66.7919 529.668 70.1199 529.668 73.5119C529.668 77.7359 530.436 81.7679 531.972 85.6079C533.508 89.4479 535.812 92.5839 538.884 95.0159C541.956 97.3839 545.764 98.5999 550.308 98.6639C552.356 98.6639 554.436 98.5039 556.548 98.1839C558.724 97.7999 560.772 97.3199 562.692 96.7439C564.612 96.1039 566.244 95.4959 567.588 94.9199L571.908 98.2799L552.324 106.92ZM562.788 83.9759C560.932 83.3999 558.916 82.7279 556.74 81.9599C554.564 81.1919 552.516 80.2959 550.596 79.2719L551.172 76.0079H561.636L562.788 83.9759ZM560.676 99.1439V76.0079H571.908V98.2799L560.676 99.1439ZM564.9 83.0159L562.404 76.0079H579.108L579.204 80.6159L564.9 83.0159ZM562.212 61.2239L560.292 49.3199L571.236 46.1519C571.364 47.3039 571.364 48.7119 571.236 50.3759C571.172 51.9759 570.98 53.7039 570.66 55.5599C570.404 57.4159 569.988 59.3039 569.412 61.2239H562.212Z" fill="#5B49C5"/>
<path d="M582.012 105L581.436 101.928C582.908 101.096 584.444 100.36 586.044 99.7199C587.644 99.0799 589.276 98.5039 590.94 97.9919L591.036 105H582.012ZM629.532 105L619.836 101.928L624.06 86.3759L630.684 86.8559C630.748 88.5839 630.716 90.5679 630.588 92.8079C630.524 95.0479 630.396 97.2559 630.204 99.4319C630.012 101.544 629.788 103.4 629.532 105ZM592.668 47.9759L582.684 47.0159L582.78 42.2159H592.572L592.668 47.9759ZM621.852 59.2079L619.74 45.6719L629.724 42.2159C629.852 43.3679 629.884 44.9039 629.82 46.8239C629.756 48.7439 629.628 50.7919 629.436 52.9679C629.244 55.0799 628.924 57.1599 628.476 59.2079H621.852ZM589.596 105V42.2159H601.308V105H589.596ZM622.716 77.8319L599.676 76.8719V70.6319L622.716 68.8079V77.8319ZM628.188 50.5679L598.62 48.5519L591.42 42.2159H629.724L628.188 50.5679ZM591.612 105L598.812 97.9919L628.188 96.3599L629.436 105H591.612Z" fill="#5B49C5"/>
<path d="M684.779 105V42.2159H696.491V105H684.779ZM675.179 105L674.603 101.928C676.075 101.096 677.803 100.36 679.787 99.7199C681.771 99.0799 683.595 98.5039 685.259 97.9919L685.355 105H675.179ZM693.323 105L693.611 98.5679L706.859 100.296L706.763 105H693.323ZM662.987 59.8799C662.731 58.3439 662.507 56.7119 662.315 54.9839C662.123 53.2559 661.963 51.5279 661.835 49.7999C661.707 48.0719 661.643 46.5039 661.643 45.0959C661.643 43.6239 661.675 42.4719 661.739 41.6399L671.147 45.1919L669.419 59.8799H662.987ZM663.371 49.5119L661.739 41.6399C665.771 41.7679 669.739 41.8639 673.643 41.9279C677.547 41.9919 681.355 42.0559 685.067 42.1199C688.779 42.1199 692.491 42.1199 696.203 42.1199C699.979 42.0559 703.787 41.9919 707.627 41.9279C711.467 41.8639 715.403 41.7679 719.435 41.6399L717.899 49.5119L690.635 47.8799L663.371 49.5119ZM711.755 59.8799L710.027 45.1919L719.435 41.6399C719.499 42.4719 719.531 43.6239 719.531 45.0959C719.531 46.5039 719.467 48.0719 719.339 49.7999C719.211 51.5279 719.051 53.2559 718.859 54.9839C718.667 56.7119 718.443 58.3439 718.187 59.8799H711.755Z" fill="#5B49C5"/>
<path d="M722.731 105L722.155 101.928C723.627 101.096 725.163 100.36 726.763 99.7199C728.363 99.0799 729.995 98.5039 731.659 97.9919L731.755 105H722.731ZM770.251 105L760.555 101.928L764.779 86.3759L771.403 86.8559C771.467 88.5839 771.435 90.5679 771.307 92.8079C771.243 95.0479 771.115 97.2559 770.923 99.4319C770.731 101.544 770.507 103.4 770.251 105ZM733.387 47.9759L723.403 47.0159L723.499 42.2159H733.291L733.387 47.9759ZM762.571 59.2079L760.459 45.6719L770.443 42.2159C770.571 43.3679 770.603 44.9039 770.539 46.8239C770.475 48.7439 770.347 50.7919 770.155 52.9679C769.963 55.0799 769.643 57.1599 769.195 59.2079H762.571ZM730.315 105V42.2159H742.027V105H730.315ZM763.435 77.8319L740.395 76.8719V70.6319L763.435 68.8079V77.8319ZM768.907 50.5679L739.339 48.5519L732.139 42.2159H770.443L768.907 50.5679ZM732.331 105L739.531 97.9919L768.907 96.3599L770.155 105H732.331Z" fill="#5B49C5"/>
<path d="M811.109 106.44C806.501 106.568 802.405 106.056 798.821 104.904C795.301 103.752 792.261 102.152 789.701 100.104C787.141 98.0559 785.061 95.6559 783.461 92.9039C781.861 90.1519 780.645 87.2079 779.813 84.0719C779.045 80.8719 778.661 77.6399 778.661 74.3759C778.661 70.1519 779.301 66.0239 780.581 61.9919C781.861 57.9599 783.781 54.3119 786.341 51.0479C788.901 47.7199 792.101 45.0959 795.941 43.1759C799.845 41.2559 804.421 40.2959 809.669 40.2959C814.277 40.2959 818.149 40.9679 821.285 42.3119C824.485 43.6559 826.981 44.9679 828.773 46.2479L826.085 56.8079C822.629 53.8639 818.917 51.5919 814.949 49.9919C810.981 48.3919 806.469 47.7519 801.413 48.0719C798.917 49.6719 796.869 51.8159 795.269 54.5039C793.733 57.1279 792.645 59.9759 792.005 63.0479C791.365 66.1199 791.045 69.1279 791.045 72.0719C791.045 76.9359 791.845 81.3519 793.445 85.3199C795.109 89.2239 797.573 92.2959 800.837 94.5359C804.165 96.7759 808.229 97.7359 813.029 97.4159L828.293 92.2319L830.405 97.9919L811.109 106.44ZM819.653 62.3759L817.829 49.4159L828.773 46.2479C828.901 47.3999 828.901 48.9039 828.773 50.7599C828.709 52.6159 828.517 54.5679 828.197 56.6159C827.941 58.5999 827.525 60.5199 826.949 62.3759H819.653Z" fill="#5B49C5"/>
<path d="M842.815 105V42.2159H854.527V105H842.815ZM851.935 77.5439V70.0559H887.839V77.5439H851.935ZM883.039 105V42.2159H894.751V105H883.039ZM848.671 48.6479L835.423 46.9199L835.519 42.2159H848.959L848.671 48.6479ZM853.183 49.2239L853.087 42.2159H862.111L862.687 45.2879C861.343 45.9919 859.839 46.6639 858.175 47.3039C856.511 47.9439 854.847 48.5839 853.183 49.2239ZM888.895 48.6479L875.647 46.9199L875.743 42.2159H889.183L888.895 48.6479ZM893.407 49.2239L893.311 42.2159H902.335L902.911 45.2879C901.503 45.9919 899.967 46.6639 898.303 47.3039C896.703 47.9439 895.071 48.5839 893.407 49.2239ZM835.231 105L834.655 101.928C836.127 101.096 837.663 100.36 839.263 99.7199C840.863 99.0799 842.495 98.5039 844.159 97.9919L844.255 105H835.231ZM850.111 105L850.399 98.5679L863.647 100.296L863.551 105H850.111ZM875.455 105L874.879 101.928C876.287 101.096 877.791 100.36 879.391 99.7199C881.055 99.0799 882.719 98.5039 884.383 97.9919L884.479 105H875.455ZM890.335 105L890.623 98.5679L903.871 100.296L903.775 105H890.335Z" fill="#5B49C5"/>
<path d="M955.021 106.152L919.021 49.7039L919.213 42.2159H928.333L963.085 97.3199L962.989 102.984L955.021 106.152ZM907.981 105L907.405 101.928C908.877 101.096 910.413 100.36 912.013 99.7199C913.613 99.0799 915.245 98.5039 916.909 97.9919L917.005 105H907.981ZM919.405 105L919.693 98.5679L932.941 100.296L932.845 105H919.405ZM915.565 105V42.2159H928.429L921.997 48.9359L924.397 68.1359V105H915.565ZM921.997 48.6479L909.133 46.9199L909.229 42.2159H922.285L921.997 48.6479ZM955.021 106.152L960.781 100.392L958.093 79.3679V42.2159H966.925L966.733 105L955.021 106.152ZM962.029 48.6479L948.781 46.9199L948.877 42.2159H962.317L962.029 48.6479ZM965.389 49.2239L965.293 42.2159H974.317L974.893 45.2879C973.549 45.9919 972.045 46.6639 970.381 47.3039C968.717 47.9439 967.053 48.5839 965.389 49.2239Z" fill="#5B49C5"/>
<path d="M1008.78 106.92C1004.94 106.92 1001.2 106.248 997.551 104.904C993.903 103.496 990.607 101.448 987.663 98.7599C984.783 96.0079 982.479 92.5839 980.751 88.4879C979.087 84.3279 978.255 79.4959 978.255 73.9919C978.255 67.2079 979.567 61.2879 982.191 56.2319C984.815 51.1759 988.367 47.2719 992.847 44.5199C997.391 41.7039 1002.48 40.2959 1008.11 40.2959C1012.14 40.2959 1015.98 41.0319 1019.63 42.5039C1023.34 43.9759 1026.61 46.1839 1029.42 49.1279C1032.3 52.0079 1034.57 55.5919 1036.24 59.8799C1037.9 64.1039 1038.73 68.9359 1038.73 74.3759C1038.73 79.8799 1037.9 84.6799 1036.24 88.7759C1034.57 92.8719 1032.3 96.2639 1029.42 98.9519C1026.61 101.576 1023.41 103.56 1019.82 104.904C1016.3 106.248 1012.62 106.92 1008.78 106.92ZM1010.51 99.2399C1011.6 99.2399 1012.65 99.1759 1013.68 99.0479C1014.77 98.8559 1015.85 98.6319 1016.94 98.3759C1019.69 96.4559 1021.9 93.3839 1023.57 89.1599C1025.23 84.9359 1026.06 80.1679 1026.06 74.8559C1026.06 71.3999 1025.68 68.0719 1024.91 64.8719C1024.14 61.6719 1022.96 58.7919 1021.36 56.2319C1019.82 53.6719 1017.84 51.6239 1015.41 50.0879C1013.04 48.5519 1010.19 47.7839 1006.86 47.7839C1005.65 47.7839 1004.33 47.9119 1002.93 48.1679C1001.58 48.4239 1000.21 48.8079 998.799 49.3199C997.263 50.5999 995.887 52.3919 994.671 54.6959C993.455 56.9999 992.495 59.6879 991.791 62.7599C991.151 65.8319 990.831 69.0639 990.831 72.4559C990.831 75.9759 991.215 79.3679 991.983 82.6319C992.815 85.8319 994.031 88.6799 995.631 91.1759C997.231 93.6719 999.247 95.6559 1001.68 97.1279C1004.17 98.5359 1007.12 99.2399 1010.51 99.2399Z" fill="#5B49C5"/>
<path d="M1051.22 105V42.2159H1062.93V105H1051.22ZM1043.64 105L1043.06 101.928C1044.53 101.096 1046.07 100.36 1047.67 99.7199C1049.27 99.0799 1050.9 98.5039 1052.56 97.9919L1052.66 105H1043.64ZM1053.43 105L1060.63 97.8959L1091.44 96.0719L1093.08 105H1053.43ZM1093.08 105L1082.9 101.928L1087.41 83.8799L1094.32 84.3599C1094.39 86.4719 1094.36 88.8079 1094.23 91.3679C1094.16 93.8639 1094.04 96.3279 1093.84 98.7599C1093.65 101.192 1093.4 103.272 1093.08 105ZM1057.08 48.6479L1043.83 46.9199L1043.92 42.2159H1057.36L1057.08 48.6479ZM1061.59 49.2239L1061.49 42.2159H1070.52L1071.09 45.2879C1069.75 45.9919 1068.24 46.6639 1066.58 47.3039C1064.92 47.9439 1063.25 48.5839 1061.59 49.2239Z" fill="#5B49C5"/>
<path d="M1128.41 106.92C1124.57 106.92 1120.82 106.248 1117.18 104.904C1113.53 103.496 1110.23 101.448 1107.29 98.7599C1104.41 96.0079 1102.1 92.5839 1100.38 88.4879C1098.71 84.3279 1097.88 79.4959 1097.88 73.9919C1097.88 67.2079 1099.19 61.2879 1101.82 56.2319C1104.44 51.1759 1107.99 47.2719 1112.47 44.5199C1117.02 41.7039 1122.1 40.2959 1127.74 40.2959C1131.77 40.2959 1135.61 41.0319 1139.26 42.5039C1142.97 43.9759 1146.23 46.1839 1149.05 49.1279C1151.93 52.0079 1154.2 55.5919 1155.86 59.8799C1157.53 64.1039 1158.36 68.9359 1158.36 74.3759C1158.36 79.8799 1157.53 84.6799 1155.86 88.7759C1154.2 92.8719 1151.93 96.2639 1149.05 98.9519C1146.23 101.576 1143.03 103.56 1139.45 104.904C1135.93 106.248 1132.25 106.92 1128.41 106.92ZM1130.14 99.2399C1131.22 99.2399 1132.28 99.1759 1133.3 99.0479C1134.39 98.8559 1135.48 98.6319 1136.57 98.3759C1139.32 96.4559 1141.53 93.3839 1143.19 89.1599C1144.86 84.9359 1145.69 80.1679 1145.69 74.8559C1145.69 71.3999 1145.3 68.0719 1144.54 64.8719C1143.77 61.6719 1142.58 58.7919 1140.98 56.2319C1139.45 53.6719 1137.46 51.6239 1135.03 50.0879C1132.66 48.5519 1129.82 47.7839 1126.49 47.7839C1125.27 47.7839 1123.96 47.9119 1122.55 48.1679C1121.21 48.4239 1119.83 48.8079 1118.42 49.3199C1116.89 50.5999 1115.51 52.3919 1114.3 54.6959C1113.08 56.9999 1112.12 59.6879 1111.42 62.7599C1110.78 65.8319 1110.46 69.0639 1110.46 72.4559C1110.46 75.9759 1110.84 79.3679 1111.61 82.6319C1112.44 85.8319 1113.66 88.6799 1115.26 91.1759C1116.86 93.6719 1118.87 95.6559 1121.3 97.1279C1123.8 98.5359 1126.74 99.2399 1130.14 99.2399Z" fill="#5B49C5"/>
<path d="M1200.42 106.92C1195.49 107.176 1191.11 106.76 1187.27 105.672C1183.49 104.584 1180.23 102.984 1177.47 100.872C1174.79 98.7599 1172.55 96.2959 1170.75 93.4799C1168.96 90.6639 1167.62 87.6879 1166.72 84.5519C1165.89 81.3519 1165.47 78.1199 1165.47 74.8559C1165.47 70.5039 1166.18 66.2799 1167.59 62.1839C1168.99 58.0239 1171.11 54.3119 1173.92 51.0479C1176.8 47.7839 1180.35 45.1919 1184.58 43.2719C1188.87 41.2879 1193.86 40.2959 1199.55 40.2959C1204.42 40.2959 1208.55 40.9999 1211.94 42.4079C1215.33 43.7519 1217.79 44.9999 1219.33 46.1519L1216.55 56.4239C1216.23 56.1679 1215.33 55.5279 1213.86 54.5039C1212.39 53.4799 1210.47 52.3919 1208.1 51.2399C1205.73 50.0879 1202.91 49.1919 1199.65 48.5519C1196.45 47.8479 1192.87 47.6879 1188.9 48.0719C1186.34 49.6719 1184.23 51.8159 1182.56 54.5039C1180.9 57.1919 1179.68 60.1999 1178.91 63.5279C1178.15 66.7919 1177.76 70.1199 1177.76 73.5119C1177.76 77.7359 1178.53 81.7679 1180.07 85.6079C1181.6 89.4479 1183.91 92.5839 1186.98 95.0159C1190.05 97.3839 1193.86 98.5999 1198.4 98.6639C1200.45 98.6639 1202.53 98.5039 1204.64 98.1839C1206.82 97.7999 1208.87 97.3199 1210.79 96.7439C1212.71 96.1039 1214.34 95.4959 1215.68 94.9199L1220 98.2799L1200.42 106.92ZM1210.88 83.9759C1209.03 83.3999 1207.01 82.7279 1204.83 81.9599C1202.66 81.1919 1200.61 80.2959 1198.69 79.2719L1199.27 76.0079H1209.73L1210.88 83.9759ZM1208.77 99.1439V76.0079H1220V98.2799L1208.77 99.1439ZM1212.99 83.0159L1210.5 76.0079H1227.2L1227.3 80.6159L1212.99 83.0159ZM1210.31 61.2239L1208.39 49.3199L1219.33 46.1519C1219.46 47.3039 1219.46 48.7119 1219.33 50.3759C1219.27 51.9759 1219.07 53.7039 1218.75 55.5599C1218.5 57.4159 1218.08 59.3039 1217.51 61.2239H1210.31Z" fill="#5B49C5"/>
<path d="M1237.69 105V42.2159H1249.4V105H1237.69ZM1230.11 105L1229.53 101.928C1231 101.096 1232.54 100.36 1234.14 99.7199C1235.74 99.0799 1237.37 98.5039 1239.03 97.9919L1239.13 105H1230.11ZM1244.99 105L1245.27 98.5679L1258.52 100.296L1258.43 105H1244.99ZM1243.55 48.6479L1230.3 46.9199L1230.39 42.2159H1243.83L1243.55 48.6479ZM1248.06 49.2239L1247.96 42.2159H1256.99L1257.56 45.2879C1256.22 45.9919 1254.71 46.6639 1253.05 47.3039C1251.39 47.9439 1249.72 48.5839 1248.06 49.2239Z" fill="#5B49C5"/>
<path d="M1262.64 105L1262.06 101.928C1263.53 101.096 1265.07 100.36 1266.67 99.7199C1268.27 99.0799 1269.9 98.5039 1271.56 97.9919L1271.66 105H1262.64ZM1310.16 105L1300.46 101.928L1304.68 86.3759L1311.31 86.8559C1311.37 88.5839 1311.34 90.5679 1311.21 92.8079C1311.15 95.0479 1311.02 97.2559 1310.83 99.4319C1310.64 101.544 1310.41 103.4 1310.16 105ZM1273.29 47.9759L1263.31 47.0159L1263.4 42.2159H1273.2L1273.29 47.9759ZM1302.48 59.2079L1300.36 45.6719L1310.35 42.2159C1310.48 43.3679 1310.51 44.9039 1310.44 46.8239C1310.38 48.7439 1310.25 50.7919 1310.06 52.9679C1309.87 55.0799 1309.55 57.1599 1309.1 59.2079H1302.48ZM1270.22 105V42.2159H1281.93V105H1270.22ZM1303.34 77.8319L1280.3 76.8719V70.6319L1303.34 68.8079V77.8319ZM1308.81 50.5679L1279.24 48.5519L1272.04 42.2159H1310.35L1308.81 50.5679ZM1272.24 105L1279.44 97.9919L1308.81 96.3599L1310.06 105H1272.24Z" fill="#5B49C5"/>
<path d="M1342.78 106.92C1340.61 106.92 1338.14 106.664 1335.39 106.152C1332.7 105.704 1330.08 105 1327.52 104.04C1325.02 103.08 1322.94 101.896 1321.28 100.488L1324.16 89.6399C1326.33 92.5199 1328.8 94.7279 1331.55 96.2639C1334.3 97.7359 1337.12 98.7279 1340 99.2399C1342.88 99.6879 1345.57 99.8479 1348.06 99.7199C1349.98 98.7599 1351.36 97.4479 1352.19 95.7839C1353.09 94.1199 1353.53 92.4559 1353.53 90.7919C1353.53 88.6799 1352.89 86.8879 1351.61 85.4159C1350.4 83.9439 1348.73 82.6319 1346.62 81.4799C1344.51 80.3279 1342.05 79.0799 1339.23 77.7359C1336.41 76.3919 1333.66 74.9199 1330.97 73.3199C1328.29 71.7199 1326.01 69.7359 1324.16 67.3679C1322.37 64.9359 1321.47 61.9599 1321.47 58.4399C1321.47 54.5999 1322.56 51.3359 1324.73 48.6479C1326.91 45.8959 1329.79 43.8159 1333.37 42.4079C1336.96 40.9999 1340.83 40.2959 1344.99 40.2959C1347.17 40.2959 1349.31 40.4559 1351.42 40.7759C1353.6 41.0959 1355.61 41.5119 1357.47 42.0239C1359.33 42.4719 1360.96 42.9519 1362.37 43.4639L1357.37 54.1199C1354.69 51.2399 1351.55 49.3199 1347.97 48.3599C1344.45 47.3999 1340.93 47.0799 1337.41 47.3999C1335.87 48.2959 1334.72 49.5119 1333.95 51.0479C1333.25 52.5839 1332.89 54.1199 1332.89 55.6559C1332.89 57.6399 1333.53 59.3359 1334.81 60.7439C1336.09 62.0879 1337.82 63.3359 1340 64.4879C1342.24 65.6399 1344.73 66.8559 1347.49 68.1359C1350.43 69.5439 1353.25 71.0799 1355.93 72.7439C1358.69 74.4079 1360.93 76.4559 1362.65 78.8879C1364.38 81.2559 1365.25 84.2959 1365.25 88.0079C1365.25 92.0399 1364.19 95.4639 1362.08 98.2799C1359.97 101.096 1357.21 103.24 1353.82 104.712C1350.43 106.184 1346.75 106.92 1342.78 106.92ZM1332.61 100.776L1321.28 100.488C1321.21 99.3359 1321.18 97.7999 1321.18 95.8799C1321.25 93.8959 1321.37 91.8159 1321.57 89.6399C1321.82 87.3999 1322.11 85.3519 1322.43 83.4959H1328.48L1332.61 100.776ZM1354.69 60.4559L1351.81 44.9999L1362.37 43.4639C1362.49 44.7439 1362.49 46.3439 1362.37 48.2639C1362.3 50.1839 1362.17 52.1999 1361.98 54.3119C1361.79 56.4239 1361.5 58.4719 1361.12 60.4559H1354.69Z" fill="#5B49C5"/>
</svg>
